<svg xmlns="http://www.w3.org/2000/svg" fill="currentColor" style="shape-rendering:geometricPrecision;text-rendering:geometricPrecision;image-rendering:optimizeQuality;fill-rule:evenodd;clip-rule:evenodd" viewBox="7.3 32.96 282.18 137.89"><path style="opacity:.821" d="M76.425 32.957q3.801.739 1.425 3.741-3.029.71-2.672-2.316.368-.989 1.247-1.425"/><path style="opacity:.883" d="M127.019 37.945q1.276.384 1.603 1.781a477 477 0 0 0 7.838 19.24q2.495 2.679 5.344.713a283 283 0 0 0 .534-21.378 1.76 1.76 0 0 1 1.069.178 510 510 0 0 0 15.855 16.211 129 129 0 0 0 0-13.539 2.4 2.4 0 0 0-.534-1.069 9.6 9.6 0 0 1-2.494-.891q.956-.581 2.138-.534a28.5 28.5 0 0 0 6.057 0v1.069q-2.314-.56-2.316 1.781l-.356 18.527q.077 2.249-1.603 1.247a487 487 0 0 1-15.499-15.855q.067 6.762.356 13.539a4 4 0 0 0 .534 1.247l2.138.356q.244.221.356.534a94.4 94.4 0 0 1-16.39 0 6.4 6.4 0 0 1 .713-1.247 88 88 0 0 1-2.316-5.879 16.25 16.25 0 0 0-6.77 0q-1.58 3.047-1.96 6.413 1.157-.205 1.781.713a21.7 21.7 0 0 1-7.838 0q1.605-.671 3.029-1.781a2450 2450 0 0 0 8.729-21.378m-.713 7.126q1.72 3 2.85 6.413a17.8 17.8 0 0 1-4.988.356z"/><path style="opacity:.877" d="M89.964 38.302q3.026-.171 5.879.713a11.8 11.8 0 0 1-.178 4.988 36 36 0 0 1-1.781-3.029q-4.242-2.495-6.057 1.96a8.4 8.4 0 0 0 .891 2.138 41 41 0 0 1 6.77 6.057q3.2 5.797-1.96 9.798-4.783 1.852-9.442-.178-.498-2.937.534-5.701.505 2.647 2.494 4.454 3.651 1.596 5.879-1.603.422-1.675-.356-3.207a1820 1820 0 0 0-6.77-6.413q-3.809-7.569 4.097-9.976"/><path style="opacity:.922" d="M99.228 38.302a92.7 92.7 0 0 0 19.596.356v4.632h-1.069q.172-1.188-.713-1.96a22 22 0 0 0-6.057-.534q-.089 9.087.178 18.171a4 4 0 0 0 .534 1.247q1.359.075 2.494.713-2.401.61-4.988.534l-4.632-.356q.797-.808 1.96-1.069.748-9.6.534-19.24a26.4 26.4 0 0 0-6.77.534 17 17 0 0 1-1.247 1.96q-.505-.408-.534-1.069a28.5 28.5 0 0 0 .713-3.919"/><path style="opacity:.907" d="M72.506 38.658a72 72 0 0 0 8.907.356 30 30 0 0 1-2.316 1.425 250 250 0 0 0 0 18.884q.2.49.534.891l2.138.356q.713.356 0 .713a40.3 40.3 0 0 1-9.264-.178q.797-.808 1.96-1.069a132 132 0 0 0 .356-18.884 4 4 0 0 0-.534-1.247q-1.184-.091-2.138-.713.297-.205.356-.534"/><path style="opacity:.89" d="M166.924 38.658a59 59 0 0 0 9.976.178q6.986 1.181 4.097 7.66l-1.96 1.96q6.261 2.179 4.81 8.729-1.516 3.387-5.166 4.097a61 61 0 0 1-11.401-.178 78 78 0 0 0 2.316-1.425q.356-9.62 0-19.24-.976-.841-2.316-.891-.402-.358-.356-.891m7.126 1.781q3.112-.195 4.097 2.85 1.086 5.503-4.276 4.632-.425-3.784.178-7.482m0 9.264q3.853.1 5.523 3.563 2.349 7.007-4.81 6.235a2.5 2.5 0 0 1-.891-1.247 35.5 35.5 0 0 1 .178-8.551"/><path style="opacity:.896" d="M184.382 38.658q4.841.319 9.62.356-.649.838-1.781.891a3.4 3.4 0 0 0-.534.891 122 122 0 0 0 0 13.183q1.487 8.27 9.086 4.81 1.612-1.53 1.96-3.741a150 150 0 0 0 0-14.608 43 43 0 0 1-2.672-1.425 86 86 0 0 1 6.413-.356q1.182-.047 2.138.534a10.7 10.7 0 0 1-2.316.891 182 182 0 0 0-.713 14.964q-1.098 5.196-6.235 6.591-5.823 1.284-10.154-2.672a11.6 11.6 0 0 1-1.425-3.563 346 346 0 0 0-.534-14.074l-.356-1.247a11.5 11.5 0 0 0-2.138-.534q-.402-.358-.356-.891"/><path style="opacity:.862" d="M210.392 38.658a30.3 30.3 0 0 0 9.264 0v1.069q-1.225-.137-2.316.356a241 241 0 0 0 0 18.527 3.4 3.4 0 0 0 .891.534q2.672.356 5.344 0a11 11 0 0 0 1.96-2.672q.505.408.534 1.069a35 35 0 0 0-.534 3.207q-3.703.702-7.66.713l-7.482-.356q.649-.838 1.781-.891a3.4 3.4 0 0 0 .534-.891 250 250 0 0 0 0-18.884q-.976-.841-2.316-.891-.587-.412 0-.891"/><path style="opacity:.885" d="M58.967 63.242q4.629-.626 4.097 3.919-2.019 3.377-5.166 1.069-1.642-3.016 1.069-4.988"/><path style="opacity:.932" d="M114.192 71.437q.707-.091 1.247.356l1.425 2.85a532 532 0 0 0 13.183 32.067q3.064 3.247 7.304 1.603.804-.797.891-1.96a2387 2387 0 0 1 .891-34.204q.653-.595 1.425-.178a1490 1490 0 0 0 26.9 27.969q.055-12.125-.713-24.228a4.1 4.1 0 0 0-1.247-1.603l-3.207-.356q-.713-.534 0-1.069l2.494-.178a25 25 0 0 0 8.195 0l2.138.178q.447.54.356 1.247a9 9 0 0 0-2.494.178q-.98.267-1.247 1.247-.584 17.578-1.247 35.095-.713.356-1.425 0a717 717 0 0 1-26.544-27.257 226 226 0 0 0 .713 23.872 2.5 2.5 0 0 0 .891 1.247q2.022.437 3.919 1.069a319 319 0 0 1-26.01.534q.207-1.168 1.069-1.96a526 526 0 0 0-3.919-10.154 61 61 0 0 0-11.401-.178 69 69 0 0 0-3.563 9.798q.016.817.713 1.247 1.414.266 2.85.178v1.069H94.596v-1.069q3.23.439 5.166-2.138 7.167-17.674 14.43-35.273m-1.069 11.045q.533-.016.713.534a221 221 0 0 1 3.919 11.58h-8.551q1.954-6.049 3.919-12.114"/><path style="opacity:.931" d="M225.713 71.437q.811.006 1.247.713a1519 1519 0 0 0 14.252 34.204q1.939 2.938 5.523 2.494v1.069h-13.539v-1.069q.857.1 1.425-.534a390 390 0 0 0-4.097-10.511q-5.757-.705-11.58 0a61.6 61.6 0 0 0-3.207 9.442l.356 1.247a6.9 6.9 0 0 0 2.85.356v1.069a122 122 0 0 1-13.183-.356 1.3 1.3 0 0 1 .356-.534q3.387.133 5.166-2.672a2047 2047 0 0 1 14.43-34.917m-1.069 10.689a9006 9006 0 0 1 4.632 12.114 56 56 0 0 1-8.907.356z"/><path style="opacity:.929" d="M12.292 71.793a3 3 0 0 1 1.425.178 1490 1490 0 0 0 26.9 27.969q.075-11.58-.356-23.159a5.1 5.1 0 0 0-.891-2.316q-1.884-.714-3.919-.534-.091-.707.356-1.247l2.316-.178a25.3 25.3 0 0 0 8.373 0l2.138.178q.713.534 0 1.069-2.65-.353-3.741 1.96a2363 2363 0 0 0-.891 34.917 3.6 3.6 0 0 1-2.138-.534 698 698 0 0 1-26.187-26.901 308 308 0 0 0 .713 23.515 10.5 10.5 0 0 0 .891 1.603 9.9 9.9 0 0 0 3.919.534v1.069H7.305v-1.069q1.548.097 3.029-.356.927-.632 1.069-1.781.497-17.464.891-34.917"/><path style="opacity:.923" d="M83.907 71.793q4.701-.093 9.086 1.425-.117 3.714-.356 7.482-.54.447-1.247.356-.84-7.648-8.551-6.235-5.865 3.027-1.96 8.373 3.408 3.26 7.304 5.879 8.648 6.891 4.097 16.924-2.832 3.599-7.304 4.632a27 27 0 0 1-2.494 4.454q-1.566.415-3.029-.178a18.8 18.8 0 0 1 .534-4.276q-3.477.088-6.591-1.425a56 56 0 0 1 0-8.907q.54-.447 1.247-.356 1.314 10.721 11.401 6.948 3.719-3.207 1.603-7.66a36 36 0 0 0-4.097-4.454q-5.639-3.323-8.729-9.086-2.969-11.879 9.086-13.895"/><path style="opacity:.952" d="M178.682 71.793a20.6 20.6 0 0 0 5.344.891q11.58.356 23.159 0 1.792-.243 3.563-.534v7.838h-1.425q.383-2.92-2.494-3.741a53.6 53.6 0 0 0-9.264-.534q-.193 15.509.534 30.998.146.978.891 1.603a18 18 0 0 0 3.919.713q.244.221.356.534a94.4 94.4 0 0 1-16.39 0 1.3 1.3 0 0 1 .356-.534q3.439.298 3.741-3.029.267-15.141.178-30.285-5.006-.068-9.976.534-.978.146-1.603.891a22 22 0 0 1-1.247 2.316 1.76 1.76 0 0 1-1.069.178 45.6 45.6 0 0 1 1.425-7.838"/><path style="opacity:.927" d="M259.917 71.793a41.5 41.5 0 0 1 8.907 1.069 133 133 0 0 0-.356 8.195q-.707.091-1.247-.356-1.53-8.029-9.442-5.523-4.017 2.618-1.96 6.948a30.6 30.6 0 0 0 7.304 6.235q4.368 3.294 6.235 8.373 2.131 10.803-8.373 13.717l-2.85 4.632q-1.566.415-3.029-.178.256-2.108.534-4.276-3.395.131-6.413-1.425a33.3 33.3 0 0 1 0-9.264q.707-.091 1.247.356 1.229 10.013 10.867 6.948 4.693-3.586 1.603-8.729a18320 18320 0 0 1-10.689-9.976q-3.924-5.76-1.069-12.114 3.407-4.241 8.729-4.632"/><path style="opacity:.938" d="M52.91 72.506a99.4 99.4 0 0 0 14.252.178q.447.54.356 1.247a9 9 0 0 0-2.494.178q-.98.267-1.247 1.247a261 261 0 0 0-.356 26.01 33 33 0 0 0 .713 6.413q.626.745 1.603.891l2.85.356q.244.221.356.534a181 181 0 0 1-16.033.356v-1.069q2.9.56 3.741-2.138.356-15.677 0-31.354-.267-.98-1.247-1.247l-2.494-.356q-.633-.612 0-1.247"/><path style="opacity:.941" d="M273.456 72.506a78 78 0 0 0 14.608 0v1.425a9 9 0 0 0-2.494.178q-.98.267-1.247 1.247a689 689 0 0 0 0 31.354q.146.978.891 1.603a11.3 11.3 0 0 0 4.276.534v1.069h-16.033v-1.069q1.833.21 3.385-.713l.356-1.069a241 241 0 0 0 0-31.71q-.267-.98-1.247-1.247l-2.494-.356q-.633-.612 0-1.247"/><path style="opacity:.901" d="M78.563 127.019q2.443 1.637 4.454 3.919l12.47 13.183q-.043-7.121-.356-14.252-1.033-1.626-3.029-1.781 4.276-.713 8.551 0a12.2 12.2 0 0 0-2.316 1.069 969 969 0 0 0-.891 21.2q-.534.356-1.069 0a510 510 0 0 1-15.855-16.211q.157 6.55.356 13.183a5.5 5.5 0 0 0 .534 1.603 48 48 0 0 0 2.494.891q-4.276.713-8.551 0 2.721-.138 2.672-2.85.096-10.015.534-19.952"/><path style="opacity:.895" d="M151.247 127.375h1.069q.162 2.637-.891 4.988-.753-3.355-4.276-2.85a7.1 7.1 0 0 0-2.138.356 35.7 35.7 0 0 0 0 7.126q2.538.607 5.166.178a2.5 2.5 0 0 0 1.247-.891q.505.408.534 1.069a40 40 0 0 0-.534 3.919 1.3 1.3 0 0 1-.534.356 5.2 5.2 0 0 1-.534-1.781 3.4 3.4 0 0 0-.891-.534 30 30 0 0 0-4.632-.178 36.7 36.7 0 0 0 .534 8.551q2.463 1.074 5.166.534a2.5 2.5 0 0 0 1.247-.891q.836-3.198 1.247-.178a6.5 6.5 0 0 1-.713 3.029 10.7 10.7 0 0 1-2.494.356 397 397 0 0 1-11.401-.713 5.45 5.45 0 0 0 1.96-1.069 132 132 0 0 0 .356-18.884q-.817-1.612-2.672-1.425-2.139-.134-3.029 1.781a317 317 0 0 1-9.442 20.665q-.907-.462-1.247-1.425a238 238 0 0 0-8.729-20.309 16 16 0 0 1-2.494-1.069q4.81-.713 9.62 0a3.7 3.7 0 0 1-1.425.534 1.76 1.76 0 0 0-.356.891 397 397 0 0 0 5.523 14.964 825 825 0 0 1 5.879-15.143q-.855-.934-2.138-1.247 10.598-.356 21.021-.713"/><path style="opacity:.89" d="M182.957 127.375q3.448-.222 6.77.534.517 2.352.356 4.81h-1.069q-1.19-5.227-6.057-3.029-2.119 2.438.178 4.81a27 27 0 0 0 4.097 3.029q6.059 5.495 1.069 11.758-2.46 1.48-5.344 1.603a72 72 0 0 0-10.333-.891q-1.636-.567-2.672-1.96a207 207 0 0 0-4.81-6.591 12 12 0 0 1-2.672-.534 43 43 0 0 0 0 7.838 11.4 11.4 0 0 0 2.672 1.069 30.3 30.3 0 0 1-9.264 0q2.431-.383 2.316-2.85.356-8.551 0-17.102-1.033-1.626-3.029-1.781a73 73 0 0 1 12.47-.178q5.427 1.675 4.097 7.304-.987 2.591-3.207 4.276 2.96 4.938 7.304 9.086.989.448 1.96.891.267-2.666.178-5.344h1.069q.78 6.445 6.77 4.097 2.752-2.644.178-5.523a51 51 0 0 1-6.057-5.344q-3.766-6.795 3.029-9.976m-20.665 2.138q5.641-.477 5.701 5.166-.128 5.741-5.701 4.454z"/><path style="opacity:.874" d="M205.76 127.375a131 131 0 0 0 19.062 0q4.357.333 8.729.713-.9.724-.534 1.781a138 138 0 0 0 4.632 8.195q3.192-4.246 4.632-9.264a4 4 0 0 1-.891-.713 18 18 0 0 1 7.126 0 10.1 10.1 0 0 0-3.385 2.138 195 195 0 0 0-5.701 9.62 56 56 0 0 0 0 8.907 12 12 0 0 0 3.029 1.069 35 35 0 0 1-9.976 0q1.449-.288 2.316-1.425.356-3.741 0-7.482-2.989-6.543-7.66-11.936-.815-.539-1.781-.534a18 18 0 0 1-.178 3.563 1.3 1.3 0 0 1-.534.356q-.19-1.704-1.781-2.316-2.523-.118-4.988-.534a167 167 0 0 0-.178 18.884q.267.624.891.891a7.2 7.2 0 0 1 2.138.534 35 35 0 0 1-9.976 0 5.2 5.2 0 0 1 1.781-.534 3.4 3.4 0 0 0 .534-.891 167 167 0 0 0-.178-18.884 53 53 0 0 1-5.701.534 25 25 0 0 0-1.781 1.96q-.462-2.339.356-4.632"/><path style="opacity:.898" d="M50.059 127.732q4.824-.177 9.62.356a12.2 12.2 0 0 0-2.316 1.069 150 150 0 0 0 0 14.608q2 7.012 8.729 4.097 2.075-1.744 2.316-4.454a129 129 0 0 0 0-13.539q-.903-1.48-2.672-1.781a23.7 23.7 0 0 1 8.195 0q-1.337.469-2.316 1.425l-.356 13.539q-1.302 7.623-9.086 7.838-8.082.11-9.086-7.838l-.356-13.539q-1.383-.926-2.672-1.781"/><path style="opacity:.877" d="M103.504 127.732q4.645-.177 9.264.356a12.2 12.2 0 0 0-2.316 1.069 269 269 0 0 0 0 19.596 12 12 0 0 0 3.029 1.069 35 35 0 0 1-9.976 0q1.292-.306 2.316-1.069a269 269 0 0 0 0-19.596q-1.45-.377-2.316-1.425"/><path style="opacity:.936" d="M193.646 127.732q4.468-.177 8.907.356a3.84 3.84 0 0 1-2.138.713 174 174 0 0 0-.178 18.884q.629 2.218 3.029 2.138-4.81.713-9.62 0 1.736-.194 2.316-1.781a241 241 0 0 0 0-18.527 22.5 22.5 0 0 1-2.316-1.781"/><path style="opacity:.837" d="M265.261 161.58q0 .356.356.356.113 1.007 1.069 1.425 2.29-5.032 7.126-7.66 1.084-.364 2.138-.356l.356.356q-6.956 6.16-9.442 15.143-1.229-4.76-4.097-8.729.125-.926 1.069-.891.721.185 1.425.356"/><path style="opacity:.805" d="M230.701 156.591a75 75 0 0 1 9.798 9.62 51.7 51.7 0 0 0-.534-8.551q-2.806-.575 0-1.069 1.808-.052 3.563.534a2.5 2.5 0 0 0-1.247.891 112 112 0 0 1-.713 12.47 92 92 0 0 1-9.62-9.62q.078 4.083.356 8.195a20 20 0 0 1 1.603.713 13.6 13.6 0 0 1-5.344.178 7.3 7.3 0 0 1 1.603-.891 232 232 0 0 1 .534-12.47"/><path style="opacity:.828" d="M245.309 156.591a23.9 23.9 0 0 0 7.66 0l.891.356a29 29 0 0 1-.713 2.494q-.39-.766-1.069-1.247a11.6 11.6 0 0 0-2.85-.178v4.276q1.999.139 3.919-.356l.356.534a22 22 0 0 1-.713 2.672 9.5 9.5 0 0 1-.713-1.247 11.6 11.6 0 0 0-2.85-.178 30 30 0 0 0 .178 4.632q2.689 1.51 4.454-1.069.377 1.384 0 2.85a51.7 51.7 0 0 1-8.551-.356 9.5 9.5 0 0 1 1.247-.713 61 61 0 0 0-.178-11.401 10 10 0 0 0-1.425-.534q.297-.205.356-.534"/><path style="opacity:.819" d="M254.929 156.591q2.166.375 4.276 0 .837-.012 1.425.534-.898.185-1.069 1.069a230 230 0 0 1 3.029 8.017q.81-3.094 1.96-.356a104 104 0 0 1-2.138 4.454q-.507.33-.891-.178l-4.988-12.114a5.1 5.1 0 0 0-1.96-.891q.297-.205.356-.534"/><path style="opacity:.723" d="M265.618 161.936q-.356 0-.356-.356-.355-1.833.713-3.563-.315-.694-1.069-.891.497-.529 1.247-.534 1.489.373 3.029.178l.356.356a10.5 10.5 0 0 0-1.603.891 24 24 0 0 1-1.603 3.563q-.244.426-.713.356"/></svg>